<svg xmlns="http://www.w3.org/2000/svg" width="34.7" height="33" viewBox="0 0 34.7 33" fill="none">
<g id="Frame 107540">
<path id="Vector_17" d="M34.6982 17.6936V23.3106C34.6982 24.2936 33.8553 25.2766 32.7315 25.2766H31.6077C31.3267 29.3489 27.9552 32.7191 23.8813 32.7191H10.8168C6.74297 32.7191 3.231 29.4894 3.09053 25.2766H1.9667C0.983349 25.2766 0 24.434 0 23.3106V17.6936C0 16.7106 0.84287 15.7277 1.9667 15.7277H3.09053C3.37148 11.6553 6.74297 8.28511 10.8168 8.28511H16.436V5.75745H14.4693L18.2622 0V4.35319H20.2289L17.5598 8.56596H24.0218C28.0957 8.56596 31.6077 11.7957 31.7481 16.0085H32.872C33.8553 15.8681 34.6982 16.7106 34.6982 17.6936Z" fill="rgb(136 80 255)"/>
<path id="Vector_18" opacity="0.1" d="M30.6251 17.4129V18.3958C20.6511 13.9022 11.3795 14.1831 4.49609 15.7277C5.19849 12.2171 8.42949 9.68945 12.0819 9.68945H22.8988C27.1131 9.68945 30.6251 13.0597 30.6251 17.4129Z" fill="white"/>
<path id="Vector_19" d="M8.28792 12.7783H26.4096C27.5335 12.7783 28.5168 13.7613 28.5168 14.8847V26.2592C28.5168 27.3826 27.5335 28.3656 26.4096 28.3656H8.28792C7.16409 28.3656 6.18074 27.3826 6.18074 26.2592V14.8847C6.32122 13.7613 7.16409 12.7783 8.28792 12.7783Z" fill="white"/>
<path id="Vector_20" d="M9.69292 16.9912H12.0811C12.362 16.9912 12.5025 17.1316 12.5025 17.4125V22.0465C12.5025 22.3274 12.362 22.4678 12.0811 22.4678H9.69292C9.41196 22.4678 9.27148 22.3274 9.27148 22.0465V17.4125C9.27148 17.1316 9.41196 16.9912 9.69292 16.9912Z" fill="#121212"/>
<path id="Vector_21" d="M25.1455 22.4678H22.7574C22.4764 22.4678 22.3359 22.3274 22.3359 22.0465V17.4125C22.3359 17.1316 22.4764 16.9912 22.7574 16.9912H25.1455C25.4265 16.9912 25.5669 17.1316 25.5669 17.4125V22.0465C25.5669 22.3274 25.286 22.4678 25.1455 22.4678Z" fill="#121212"/>
<path id="Vector_22" d="M17.5599 25.6976H17.279C15.5932 25.6976 14.048 24.5742 13.3456 23.0295L14.7504 22.4678C15.1718 23.4508 16.1552 24.1529 17.279 24.1529H17.5599C18.6838 24.1529 19.6671 23.4508 20.0886 22.4678L21.4933 23.0295C20.9314 24.5742 19.3862 25.6976 17.5599 25.6976Z" fill="#121212"/>
</g>
<defs>
<linearGradient id="paint0_linear_1186_1129" x1="2.5" y1="53.5" x2="25.4849" y2="-5.00595" gradientUnits="userSpaceOnUse">
<stop/>
<stop offset="0.422652" stop-color="#15BAAA"/>
<stop offset="0.841424" stop-color="#0E6953"/>
</linearGradient>
</defs>
</svg>